<svg width="179" height="179" viewBox="0 0 179 179" fill="none" xmlns="http://www.w3.org/2000/svg">
<path d="M15.3062 89.5C15.3062 130.16 48.5721 163.426 89.232 163.426C129.892 163.426 163.158 130.16 163.158 89.5C163.158 48.8401 129.892 15.5742 89.232 15.5742C48.5721 15.5742 15.3062 48.8401 15.3062 89.5ZM23.2776 89.5C23.2776 52.8577 52.5897 23.5456 89.232 23.5456C125.874 23.5456 155.186 52.8577 155.186 89.5C155.186 126.142 125.874 155.454 89.232 155.454C52.5897 155.454 23.2776 126.142 23.2776 89.5Z" fill="#4F46EF" stroke="#4F46EF" stroke-width="0.609278"/>
<path d="M85.2464 34.2842C85.2464 35.4577 85.6389 36.4593 86.3479 37.1684C87.0569 37.8774 88.0585 38.2699 89.2321 38.2699C90.4056 38.2699 91.4072 37.8774 92.1162 37.1684C92.8253 36.4593 93.2178 35.4577 93.2178 34.2842V4.83572C93.2178 3.66217 92.8253 2.66055 92.1162 1.95154C91.4072 1.24254 90.4056 0.850024 89.2321 0.850024C88.0585 0.850024 87.0569 1.24254 86.3479 1.95154C85.6389 2.66055 85.2464 3.66217 85.2464 4.83572V34.2842Z" fill="#4F46EF" stroke="#4F46EF" stroke-width="0.609278"/>
<path d="M85.2464 34.2842C85.2464 35.4577 85.6389 36.4593 86.3479 37.1684C87.0569 37.8774 88.0585 38.2699 89.2321 38.2699C90.4056 38.2699 91.4072 37.8774 92.1162 37.1684C92.8253 36.4593 93.2178 35.4577 93.2178 34.2842V4.83572C93.2178 3.66217 92.8253 2.66055 92.1162 1.95154C91.4072 1.24254 90.4056 0.850024 89.2321 0.850024C88.0585 0.850024 87.0569 1.24254 86.3479 1.95154C85.6389 2.66055 85.2464 3.66217 85.2464 4.83572V34.2842Z" fill="#4F46EF" stroke="#4F46EF" stroke-width="0.609278"/>
<path d="M144.448 93.4857H173.896C175.07 93.4857 176.072 93.0932 176.781 92.3842C177.49 91.6752 177.882 90.6736 177.882 89.5C177.882 88.3265 177.49 87.3249 176.781 86.6158C176.072 85.9068 175.07 85.5143 173.896 85.5143H144.448C143.274 85.5143 142.273 85.9068 141.564 86.6158C140.855 87.3249 140.462 88.3265 140.462 89.5C140.462 90.6736 140.855 91.6752 141.564 92.3842C142.273 93.0932 143.274 93.4857 144.448 93.4857Z" fill="#4F46EF" stroke="#4F46EF" stroke-width="0.609278"/>
<path d="M85.2464 174.164C85.2464 175.338 85.6389 176.34 86.3479 177.049C87.0569 177.758 88.0585 178.15 89.2321 178.15C90.4056 178.15 91.4072 177.758 92.1162 177.049C92.8253 176.34 93.2178 175.338 93.2178 174.164V144.716C93.2178 143.542 92.8253 142.541 92.1162 141.832C91.4072 141.123 90.4056 140.73 89.2321 140.73C88.0585 140.73 87.0569 141.123 86.3479 141.832C85.6389 142.541 85.2464 143.542 85.2464 144.716V174.164Z" fill="#4F46EF" stroke="#4F46EF" stroke-width="0.609278"/>
<path d="M4.56778 93.4857H34.0162C35.1898 93.4857 36.1914 93.0932 36.9004 92.3842C37.6094 91.6752 38.0019 90.6736 38.0019 89.5C38.0019 88.3265 37.6094 87.3249 36.9004 86.6158C36.1914 85.9068 35.1898 85.5143 34.0162 85.5143H4.56778C3.39423 85.5143 2.3926 85.9068 1.6836 86.6158C0.974591 87.3249 0.58208 88.3265 0.58208 89.5C0.58208 90.6736 0.974591 91.6752 1.6836 92.3842C2.3926 93.0932 3.39423 93.4857 4.56778 93.4857Z" fill="#4F46EF" stroke="#4F46EF" stroke-width="0.609278"/>
<g clip-path="url(#clip0)">
<path d="M134.927 122.483C134.855 126.459 131.543 129.659 127.526 129.549C122.269 129.405 118.827 123.708 121.376 118.958L112.876 111.673C105.242 119.785 94.2971 123.552 83.4607 122.015C82.4945 121.878 81.8992 120.884 82.2195 119.962L84.4918 113.426C84.7667 112.635 84.3486 111.772 83.5582 111.497C82.6057 111.166 81.8054 111.67 81.5504 112.403C81.0553 113.828 77.7995 123.193 77.2843 124.675C78.8283 125.705 79.8474 127.463 79.8474 129.454C79.8474 132.621 77.2724 135.196 74.1058 135.196C70.9391 135.196 68.3642 132.621 68.3642 129.454C68.3642 126.223 71.0481 123.597 74.3203 123.718L75.6395 119.923C69.5847 117.493 64.3869 113.366 60.6451 108.129L55.4582 111.476C57.1211 115.951 54.0359 120.711 49.4042 121.149C44.9495 121.571 41.2153 117.905 41.5229 113.471C41.9435 107.405 49.3702 104.518 53.7669 108.862L58.9538 105.517C52.2221 93.9973 52.8846 79.4844 60.8394 68.5767L54.7774 63.7271C50.0872 67.5121 43.0622 64.1594 43.0622 58.1222C43.0622 54.1517 46.2931 50.9208 50.2635 50.9208C55.5793 50.9208 59.0795 56.5254 56.7249 61.2972C57.2654 61.7294 72.7093 74.0848 73.011 74.3261C73.7093 74.8847 74.741 74.7448 75.2617 73.9999C75.7368 73.3203 75.5624 72.3792 74.9147 71.8611L66.393 65.0438C65.6298 64.4333 65.6078 63.2748 66.3534 62.6428C77.0297 53.5958 91.7341 52.277 103.533 58.288L105.781 54.3208C100.889 49.9082 104.037 41.7732 110.599 41.7732C114.569 41.7732 117.8 45.0041 117.8 48.9745C117.8 53.8121 113.103 57.2777 108.488 55.8596C107.298 57.9606 104.263 63.3184 102.99 65.5656C102.549 66.3438 102.851 67.3401 103.669 67.7359C104.415 68.0972 105.317 67.7756 105.725 67.0541L107.899 63.2182C108.385 62.3601 109.531 62.1701 110.279 62.8133C114.819 66.7202 118.315 71.8068 120.286 77.593L123.449 76.6782C123.245 73.8261 125.715 70.7732 129.186 70.7732C132.476 70.7732 135.128 73.5525 134.916 76.8873C134.729 79.8355 132.261 82.1941 129.307 82.2552C127.247 82.2978 125.425 81.2505 124.381 79.6503L121.152 80.5845C123.517 90.4552 121.372 101.042 114.904 109.31L123.404 116.595C128.219 112.97 135.034 116.575 134.927 122.483ZM73.2299 99.9677C77.4155 99.9677 80.8205 96.5627 80.8205 92.3771C80.8205 88.1916 77.4155 84.7866 73.2299 84.7866C69.0444 84.7866 65.6393 88.1916 65.6393 92.3771C65.6393 96.5627 69.0444 99.9677 73.2299 99.9677ZM86.0756 72.1356C87.7926 72.1356 89.1896 70.7387 89.1896 69.0215C89.1896 67.3043 87.7926 65.9074 86.0756 65.9074C84.3585 65.9074 82.9615 67.3043 82.9615 69.0215C82.9615 70.7387 84.3585 72.1356 86.0756 72.1356ZM112.545 92.961C112.545 85.9853 106.87 80.3101 99.8943 80.3101C92.9186 80.3101 87.2433 85.9853 87.2433 92.961C87.2433 99.9368 92.9186 105.612 99.8943 105.612C106.87 105.612 112.545 99.9368 112.545 92.961ZM99.8943 83.4241C94.6356 83.4241 90.3574 87.7023 90.3574 92.961C90.3574 98.2198 94.6356 102.498 99.8943 102.498C105.153 102.498 109.431 98.2198 109.431 92.961C109.431 87.7023 105.153 83.4241 99.8943 83.4241ZM73.2299 87.9006C70.7616 87.9006 68.7534 89.9088 68.7534 92.3771C68.7534 94.8455 70.7616 96.8537 73.2299 96.8537C75.6982 96.8537 77.7064 94.8455 77.7064 92.3771C77.7064 89.9088 75.6982 87.9006 73.2299 87.9006Z" fill="#4F46EF"/>
</g>
<defs>
<clipPath id="clip0">
<rect width="93.4227" height="93.4227" fill="white" transform="translate(41.5054 41.7732)"/>
</clipPath>
</defs>
</svg>
