<svg width="20" height="20" viewBox="0 0 20 20" fill="none" xmlns="http://www.w3.org/2000/svg">
<g opacity="0.5">
<path fill-rule="evenodd" clip-rule="evenodd" d="M3.3335 10.0001C3.3335 9.53984 3.70659 9.16675 4.16683 9.16675H15.8335C16.2937 9.16675 16.6668 9.53984 16.6668 10.0001C16.6668 10.4603 16.2937 10.8334 15.8335 10.8334H4.16683C3.70659 10.8334 3.3335 10.4603 3.3335 10.0001Z" fill="black"/>
<path fill-rule="evenodd" clip-rule="evenodd" d="M10.5894 3.57733C10.9149 3.90277 10.9149 4.4304 10.5894 4.75584L5.34534 9.99992L10.5894 15.244C10.9149 15.5694 10.9149 16.0971 10.5894 16.4225C10.264 16.7479 9.73634 16.7479 9.41091 16.4225L3.57757 10.5892C3.25214 10.2637 3.25214 9.7361 3.57757 9.41066L9.41091 3.57733C9.73634 3.25189 10.264 3.25189 10.5894 3.57733Z" fill="black"/>
</g>
</svg>
