<svg width="19" height="19" viewBox="0 0 19 19" fill="none" xmlns="http://www.w3.org/2000/svg">
<path d="M2.375 4.75H3.95833H16.625" stroke="#A8A8A8" stroke-width="1.5" stroke-linecap="round" stroke-linejoin="round"/>
<path d="M6.33301 4.74992V3.16659C6.33301 2.74666 6.49982 2.34393 6.79676 2.047C7.09369 1.75007 7.49642 1.58325 7.91634 1.58325H11.083C11.5029 1.58325 11.9057 1.75007 12.2026 2.047C12.4995 2.34393 12.6663 2.74666 12.6663 3.16659V4.74992M15.0413 4.74992V15.8333C15.0413 16.2532 14.8745 16.6559 14.5776 16.9528C14.2807 17.2498 13.8779 17.4166 13.458 17.4166H5.54134C5.12142 17.4166 4.71869 17.2498 4.42176 16.9528C4.12482 16.6559 3.95801 16.2532 3.95801 15.8333V4.74992H15.0413Z" stroke="#A8A8A8" stroke-width="1.5" stroke-linecap="round" stroke-linejoin="round"/>
<path d="M7.91699 8.70825V13.4583" stroke="#A8A8A8" stroke-width="1.5" stroke-linecap="round" stroke-linejoin="round"/>
<path d="M11.083 8.70825V13.4583" stroke="#A8A8A8" stroke-width="1.5" stroke-linecap="round" stroke-linejoin="round"/>
</svg>
