<svg width="348" height="340" viewBox="0 0 348 340" fill="none" xmlns="http://www.w3.org/2000/svg">
<g clip-path="url(#clip0)">
<path d="M220.925 76.4649H127.154C125.017 76.4675 122.968 77.3183 121.457 78.8307C119.946 80.3431 119.096 82.3935 119.094 84.5323V293.128L118.019 293.457L95.0155 300.508C93.9253 300.84 92.7478 300.726 91.7414 300.191C90.735 299.655 89.9819 298.742 89.6476 297.652L21.2227 73.9425C20.8897 72.8513 21.0032 71.6724 21.5383 70.6649C22.0733 69.6574 22.9861 68.9038 24.076 68.5696L59.5244 57.7055L162.29 26.2211L197.738 15.357C198.278 15.1908 198.845 15.1328 199.407 15.1861C199.969 15.2395 200.515 15.4033 201.013 15.668C201.512 15.9328 201.953 16.2934 202.313 16.7291C202.672 17.1649 202.942 17.6673 203.107 18.2075L220.597 75.3893L220.925 76.4649Z" fill="#E7E7E7"/>
<path d="M241.385 75.3887L220.306 6.47155C219.955 5.32327 219.382 4.2554 218.618 3.32898C217.855 2.40256 216.917 1.63575 215.858 1.07235C214.798 0.508954 213.638 0.160014 212.444 0.0454845C211.25 -0.0690451 210.045 0.0530796 208.898 0.404867L159.06 15.6738L56.2993 47.1635L6.4611 62.4378C4.14589 63.1494 2.20732 64.7513 1.07093 66.892C-0.0654702 69.0327 -0.306857 71.5372 0.399761 73.8559L72.4462 309.386C73.0202 311.258 74.1784 312.896 75.7509 314.061C77.3234 315.225 79.2274 315.855 81.1834 315.856C82.0888 315.857 82.989 315.721 83.8539 315.453L118.018 304.987L119.093 304.654V303.529L118.018 303.857L83.5369 314.426C81.4933 315.049 79.2861 314.836 77.3993 313.833C75.5126 312.83 74.1004 311.118 73.4726 309.074L1.43167 73.5386C1.1206 72.5258 1.01218 71.4615 1.11263 70.4068C1.21307 69.352 1.52039 68.3274 2.01701 67.3917C2.51363 66.456 3.18979 65.6275 4.00676 64.9537C4.82373 64.2799 5.76546 63.7741 6.77803 63.4651L56.6162 48.1908L159.377 16.7064L209.215 1.43213C209.983 1.19753 210.782 1.07791 211.585 1.07716C213.308 1.08103 214.985 1.63712 216.369 2.66398C217.754 3.69083 218.774 5.13449 219.279 6.7835L240.262 75.3887L240.596 76.4643H241.713L241.385 75.3887Z" fill="#3F3D56"/>
<path d="M65.9205 68.7453C64.8848 68.7446 63.8766 68.4117 63.0439 67.7954C62.2111 67.1792 61.5976 66.312 61.2933 65.3212L54.3721 42.6938C54.1862 42.086 54.1216 41.4475 54.1822 40.8147C54.2428 40.182 54.4274 39.5673 54.7253 39.006C55.0233 38.4446 55.4288 37.9475 55.9187 37.543C56.4087 37.1385 56.9734 36.8346 57.5807 36.6485L152.12 7.67918C153.346 7.3046 154.671 7.43235 155.803 8.03439C156.936 8.63644 157.783 9.66358 158.16 10.8904L165.081 33.518C165.455 34.7455 165.327 36.0714 164.726 37.2048C164.124 38.3381 163.098 39.1864 161.872 39.5635L67.3333 68.5329C66.8755 68.6735 66.3994 68.7451 65.9205 68.7453Z" fill="#4F46EF"/>
<path d="M102.176 24.1777C108.112 24.1777 112.923 19.3618 112.923 13.4211C112.923 7.48045 108.112 2.66458 102.176 2.66458C96.2412 2.66458 91.4297 7.48045 91.4297 13.4211C91.4297 19.3618 96.2412 24.1777 102.176 24.1777Z" fill="#4F46EF"/>
<path d="M102.176 20.2327C105.935 20.2327 108.981 17.1831 108.981 13.4213C108.981 9.65951 105.935 6.60995 102.176 6.60995C98.4179 6.60995 95.3711 9.65951 95.3711 13.4213C95.3711 17.1831 98.4179 20.2327 102.176 20.2327Z" fill="white"/>
<path d="M323.821 313.109H142.2C140.989 313.107 139.828 312.625 138.972 311.768C138.116 310.911 137.634 309.749 137.633 308.537V90.7173C137.634 89.5053 138.116 88.3433 138.972 87.4863C139.828 86.6292 140.989 86.1472 142.2 86.1458H323.821C325.032 86.1472 326.193 86.6293 327.049 87.4863C327.905 88.3433 328.387 89.5053 328.388 90.7173V308.537C328.387 309.749 327.905 310.911 327.049 311.768C326.193 312.625 325.032 313.107 323.821 313.109Z" fill="#E7E7E7"/>
<path d="M240.264 75.3893H127.154C124.733 75.3927 122.411 76.3571 120.699 78.071C118.986 79.7849 118.023 82.1085 118.02 84.5323V303.858L119.094 303.53V84.5323C119.097 82.3935 119.947 80.3431 121.458 78.8307C122.969 77.3183 125.017 76.4675 127.154 76.4649H240.597L240.264 75.3893ZM338.866 75.3893H127.154C124.733 75.3927 122.411 76.3571 120.699 78.071C118.986 79.7849 118.023 82.1085 118.02 84.5323V330.857C118.023 333.281 118.986 335.604 120.699 337.318C122.411 339.032 124.733 339.997 127.154 340H338.866C341.287 339.997 343.609 339.032 345.321 337.318C347.034 335.604 347.997 333.281 348 330.857V84.5323C347.997 82.1085 347.034 79.7849 345.321 78.071C343.609 76.3571 341.287 75.3927 338.866 75.3893ZM346.926 330.857C346.923 332.996 346.073 335.046 344.562 336.559C343.051 338.071 341.003 338.922 338.866 338.924H127.154C125.017 338.922 122.969 338.071 121.458 336.559C119.947 335.046 119.097 332.996 119.094 330.857V84.5323C119.097 82.3935 119.947 80.3431 121.458 78.8307C122.969 77.3183 125.017 76.4675 127.154 76.4649H338.866C341.003 76.4675 343.051 77.3183 344.562 78.8307C346.073 80.3431 346.923 82.3935 346.926 84.5323V330.857Z" fill="#3F3D56"/>
<path d="M282.445 99.0535H183.574C182.292 99.052 181.063 98.5416 180.156 97.6341C179.25 96.7267 178.74 95.4963 178.738 94.213V70.5486C178.74 69.2653 179.25 68.035 180.156 67.1275C181.063 66.2201 182.292 65.7096 183.574 65.7082H282.445C283.727 65.7096 284.956 66.2201 285.863 67.1275C286.769 68.035 287.279 69.2653 287.281 70.5486V94.213C287.279 95.4963 286.769 96.7267 285.863 97.6341C284.956 98.5416 283.727 99.052 282.445 99.0535Z" fill="#4F46EF"/>
<path d="M233.01 67.3218C238.946 67.3218 243.757 62.506 243.757 56.5653C243.757 50.6246 238.946 45.8088 233.01 45.8088C227.075 45.8088 222.264 50.6246 222.264 56.5653C222.264 62.506 227.075 67.3218 233.01 67.3218Z" fill="#4F46EF"/>
<path d="M233.009 63.117C236.624 63.117 239.554 60.1837 239.554 56.5652C239.554 52.9468 236.624 50.0135 233.009 50.0135C229.394 50.0135 226.463 52.9468 226.463 56.5652C226.463 60.1837 229.394 63.117 233.009 63.117Z" fill="white"/>
</g>
<defs>
<clipPath id="clip0">
<rect width="348" height="340" fill="white"/>
</clipPath>
</defs>
</svg>
