<svg width="16" height="16" viewBox="0 0 16 16" fill="none" xmlns="http://www.w3.org/2000/svg">
<path d="M7.99967 8.66659C8.36786 8.66659 8.66634 8.36811 8.66634 7.99992C8.66634 7.63173 8.36786 7.33325 7.99967 7.33325C7.63148 7.33325 7.33301 7.63173 7.33301 7.99992C7.33301 8.36811 7.63148 8.66659 7.99967 8.66659Z" stroke="#A8A8A8" stroke-width="2" stroke-linecap="round" stroke-linejoin="round"/>
<path d="M7.99967 3.00008C8.36786 3.00008 8.66634 2.7016 8.66634 2.33341C8.66634 1.96522 8.36786 1.66675 7.99967 1.66675C7.63148 1.66675 7.33301 1.96522 7.33301 2.33341C7.33301 2.7016 7.63148 3.00008 7.99967 3.00008Z" stroke="#A8A8A8" stroke-width="2" stroke-linecap="round" stroke-linejoin="round"/>
<path d="M7.99967 14.3333C8.36786 14.3333 8.66634 14.0349 8.66634 13.6667C8.66634 13.2985 8.36786 13 7.99967 13C7.63148 13 7.33301 13.2985 7.33301 13.6667C7.33301 14.0349 7.63148 14.3333 7.99967 14.3333Z" stroke="#A8A8A8" stroke-width="2" stroke-linecap="round" stroke-linejoin="round"/>
</svg>
