<svg width="36" height="36" viewBox="0 0 36 36" fill="none" xmlns="http://www.w3.org/2000/svg">
<path fill-rule="evenodd" clip-rule="evenodd" d="M18 6C18.8285 6 19.5 6.67157 19.5 7.5V28.5C19.5 29.3284 18.8285 30 18 30C17.1716 30 16.5 29.3284 16.5 28.5V7.5C16.5 6.67157 17.1716 6 18 6Z" fill="white"/>
<path fill-rule="evenodd" clip-rule="evenodd" d="M18 5.5C19.1046 5.5 20 6.39543 20 7.5V28.5C20 29.6046 19.1046 30.5 18 30.5C16.8955 30.5 16 29.6046 16 28.5V7.5C16 6.39543 16.8955 5.5 18 5.5ZM19.5 7.5C19.5 6.67157 18.8285 6 18 6C17.1716 6 16.5 6.67157 16.5 7.5V28.5C16.5 29.3284 17.1716 30 18 30C18.8285 30 19.5 29.3284 19.5 28.5V7.5Z" fill="white"/>
<path fill-rule="evenodd" clip-rule="evenodd" d="M6 18C6 17.1716 6.67157 16.5 7.5 16.5H28.5C29.3284 16.5 30 17.1716 30 18C30 18.8284 29.3284 19.5 28.5 19.5H7.5C6.67157 19.5 6 18.8284 6 18Z" fill="white"/>
<path fill-rule="evenodd" clip-rule="evenodd" d="M5.5 18C5.5 16.8954 6.39543 16 7.5 16H28.5C29.6046 16 30.5 16.8954 30.5 18C30.5 19.1046 29.6046 20 28.5 20H7.5C6.39543 20 5.5 19.1046 5.5 18ZM7.5 16.5C6.67157 16.5 6 17.1716 6 18C6 18.8284 6.67157 19.5 7.5 19.5H28.5C29.3284 19.5 30 18.8284 30 18C30 17.1716 29.3284 16.5 28.5 16.5H7.5Z" fill="white"/>
</svg>
