<svg width="25" height="24" viewBox="0 0 25 24" fill="none" xmlns="http://www.w3.org/2000/svg">
<g clip-path="url(#clip0)">
<path d="M24.5 5.30855C23.5972 5.7023 22.6424 5.96398 21.665 6.08555C22.695 5.47449 23.4651 4.50689 23.8295 3.36605C22.865 3.93805 21.8098 4.34086 20.7095 4.55705C20.0349 3.83671 19.1592 3.33592 18.1962 3.11974C17.2333 2.90355 16.2276 2.98196 15.3098 3.34478C14.392 3.7076 13.6045 4.33806 13.0496 5.15425C12.4948 5.97044 12.1982 6.93463 12.1985 7.92155C12.1985 8.31155 12.2315 8.68655 12.3125 9.04355C10.3551 8.94758 8.44004 8.43957 6.69245 7.55272C4.94487 6.66588 3.40414 5.42017 2.171 3.89705C1.53923 4.97983 1.34391 6.26271 1.62482 7.48445C1.90574 8.70619 2.64175 9.77493 3.683 10.473C2.90414 10.4522 2.14171 10.2443 1.46 9.86705V9.92105C1.4613 11.0572 1.854 12.1582 2.57198 13.0387C3.28995 13.9193 4.28937 14.5256 5.402 14.7555C4.98108 14.8665 4.54728 14.921 4.112 14.9175C3.79938 14.9231 3.48708 14.8949 3.1805 14.8335C3.49841 15.8101 4.11124 16.6641 4.93459 17.2779C5.75795 17.8917 6.75134 18.2352 7.778 18.261C6.03641 19.6231 3.88846 20.362 1.6775 20.3595C1.274 20.3595 0.887 20.3415 0.5 20.292C2.74982 21.7419 5.37151 22.5088 8.048 22.5C17.102 22.5 22.052 15 22.052 8.49905C22.052 8.28155 22.0445 8.07155 22.034 7.86305C23.0044 7.16852 23.8401 6.30287 24.5 5.30855Z" fill="#03A9F4"/>
</g>
<defs>
<clipPath id="clip0">
<rect width="24" height="24" fill="white" transform="translate(0.5)"/>
</clipPath>
</defs>
</svg>
