<svg width="16" height="16" viewBox="0 0 16 16" fill="none" xmlns="http://www.w3.org/2000/svg">
<circle cx="8" cy="8" r="8" fill="#ED493F"/>
<path d="M5.1275 3.77929C4.75519 3.40698 4.15155 3.40698 3.77924 3.77929C3.40692 4.1516 3.40692 4.75524 3.77924 5.12755L6.6517 8L3.77924 10.8724C3.40692 11.2448 3.40692 11.8484 3.77924 12.2207C4.15155 12.593 4.75519 12.593 5.1275 12.2207L7.99997 9.34826L10.8725 12.2208C11.2448 12.5931 11.8484 12.5931 12.2208 12.2208C12.5931 11.8485 12.5931 11.2448 12.2208 10.8725L9.34824 8L12.2208 5.1275C12.5931 4.75518 12.5931 4.15155 12.2208 3.77923C11.8484 3.40692 11.2448 3.40692 10.8725 3.77923L7.99997 6.65174L5.1275 3.77929Z" fill="white"/>
</svg>
